<svg width="24" height="24" viewBox="0 0 24 24" fill="none" xmlns="http://www.w3.org/2000/svg">
<path d="M21 17H20V10C20 7.87827 19.1571 5.84344 17.6569 4.34315C16.1566 2.84285 14.1217 2 12 2C9.87827 2 7.84344 2.84285 6.34315 4.34315C4.84285 5.84344 4 7.87827 4 10V17H3C2.73478 17 2.48043 17.1054 2.29289 17.2929C2.10536 17.4804 2 17.7348 2 18C2 18.2652 2.10536 18.5196 2.29289 18.7071C2.48043 18.8946 2.73478 19 3 19H8.13C8.35373 19.856 8.85494 20.6137 9.5552 21.1544C10.2555 21.6952 11.1152 21.9885 12 21.9885C12.8848 21.9885 13.7445 21.6952 14.4448 21.1544C15.1451 20.6137 15.6463 19.856 15.87 19H21C21.2652 19 21.5196 18.8946 21.7071 18.7071C21.8946 18.5196 22 18.2652 22 18C22 17.7348 21.8946 17.4804 21.7071 17.2929C21.5196 17.1054 21.2652 17 21 17ZM12 20C11.6493 19.9996 11.3048 19.9071 11.0012 19.7315C10.6975 19.556 10.4454 19.3037 10.27 19H13.73C13.5546 19.3037 13.3025 19.556 12.9988 19.7315C12.6952 19.9071 12.3507 19.9996 12 20Z" fill="white"/>
</svg>
