<svg width="45" height="45" viewBox="0 0 45 45" fill="none" xmlns="http://www.w3.org/2000/svg">
<path d="M0 10C0 4.47715 4.47715 0 10 0H35C40.5228 0 45 4.47715 45 10V35C45 40.5228 40.5228 45 35 45H10C4.47715 45 0 40.5228 0 35V10Z" fill="#FFE1DC"/>
<path d="M35 22.5C35 29.4036 29.4036 35 22.5 35C15.5964 35 10 29.4036 10 22.5C10 15.5964 15.5964 10 22.5 10C29.4036 10 35 15.5964 35 22.5Z" fill="#FC573B"/>
<path d="M18.7022 25.5478C18.7022 25.962 19.038 26.2978 19.4522 26.2978L26.2022 26.2978C26.6164 26.2978 26.9522 25.962 26.9522 25.5478C26.9522 25.1336 26.6164 24.7978 26.2022 24.7978H20.2022V18.7978C20.2022 18.3836 19.8664 18.0478 19.4522 18.0478C19.038 18.0478 18.7022 18.3836 18.7022 18.7978L18.7022 25.5478ZM25.4697 18.4697L18.9219 25.0175L19.9825 26.0781L26.5303 19.5303L25.4697 18.4697Z" fill="#FDCAC2"/>
</svg>
