<svg width="48" height="48" viewBox="0 0 48 48" fill="none" xmlns="http://www.w3.org/2000/svg">
<circle cx="24" cy="24" r="24" fill="#01B5BC"/>
<path d="M32.1952 28.0976V32.1952C32.1952 32.4669 32.0872 32.7274 31.8951 32.9196C31.703 33.1117 31.4424 33.2196 31.1708 33.2196H15.8049C15.5332 33.2196 15.2727 33.1117 15.0806 32.9196C14.8884 32.7274 14.7805 32.4669 14.7805 32.1952V19.9025C14.7805 19.6308 14.8884 19.3703 15.0806 19.1782C15.2727 18.986 15.5332 18.8781 15.8049 18.8781H31.1708C31.4424 18.8781 31.703 18.986 31.8951 19.1782C32.0872 19.3703 32.1952 19.6308 32.1952 19.9025V24.0001" stroke="white" stroke-width="1.75" stroke-linecap="round" stroke-linejoin="round"/>
<path d="M32.1955 24H29.1223C28.5565 24 28.0979 24.4586 28.0979 25.0244V27.0732C28.0979 27.6389 28.5565 28.0975 29.1223 28.0975H32.1955C32.7612 28.0975 33.2199 27.6389 33.2199 27.0732V25.0244C33.2199 24.4586 32.7612 24 32.1955 24Z" stroke="white" stroke-width="1.75" stroke-linecap="round" stroke-linejoin="round"/>
<path d="M17.8535 18.878L26.1818 15.18C26.4218 15.0726 26.694 15.0616 26.9419 15.1494C27.1898 15.2371 27.3944 15.4168 27.5135 15.6512L29.1218 18.878" stroke="white" stroke-width="1.75" stroke-linecap="round" stroke-linejoin="round"/>
</svg>
