<svg width="20" height="20" viewBox="0 0 20 20" fill="none" xmlns="http://www.w3.org/2000/svg">
<g filter="url(#filter0_b)">
<path d="M20 10C20 15.5228 15.5228 20 10 20C4.47715 20 0 15.5228 0 10C0 4.47715 4.47715 0 10 0C15.5228 0 20 4.47715 20 10Z" fill="#26C6DA"/>
<path d="M13.4185 7.85071C13.4185 7.57457 13.1946 7.35071 12.9185 7.35071L8.41848 7.35071C8.14234 7.35071 7.91848 7.57457 7.91848 7.85071C7.91848 8.12685 8.14234 8.35071 8.41848 8.35071L12.4185 8.35071L12.4185 12.3507C12.4185 12.6269 12.6423 12.8507 12.9185 12.8507C13.1946 12.8507 13.4185 12.6269 13.4185 12.3507L13.4185 7.85071ZM8.04581 13.4305L13.272 8.20426L12.5649 7.49716L7.33871 12.7234L8.04581 13.4305Z" fill="#BCF5FC"/>
</g>
<defs>
<filter id="filter0_b" x="-4" y="-4" width="28" height="28" filterUnits="userSpaceOnUse" color-interpolation-filters="sRGB">
<feFlood flood-opacity="0" result="BackgroundImageFix"/>
<feGaussianBlur in="BackgroundImage" stdDeviation="2"/>
<feComposite in2="SourceAlpha" operator="in" result="effect1_backgroundBlur"/>
<feBlend mode="normal" in="SourceGraphic" in2="effect1_backgroundBlur" result="shape"/>
</filter>
</defs>
</svg>
