<svg width="20" height="20" viewBox="0 0 20 20" fill="none" xmlns="http://www.w3.org/2000/svg">
<g filter="url(#filter0_b)">
<g filter="url(#filter1_b)">
<path d="M20 10C20 15.5228 15.5228 20 10 20C4.47715 20 0 15.5228 0 10C0 4.47715 4.47715 0 10 0C15.5228 0 20 4.47715 20 10Z" fill="#FC573B"/>
</g>
<path d="M6.36846 12.3623C6.36846 12.6385 6.59231 12.8623 6.86846 12.8623L11.3685 12.8623C11.6446 12.8623 11.8685 12.6385 11.8685 12.3623C11.8685 12.0862 11.6446 11.8623 11.3685 11.8623L7.36846 11.8623L7.36846 7.86235C7.36846 7.58621 7.1446 7.36235 6.86846 7.36235C6.59231 7.36235 6.36846 7.58621 6.36846 7.86235L6.36846 12.3623ZM11.9542 6.56951C11.95 6.57366 11.9459 6.57781 11.9418 6.58195C11.9376 6.58609 11.9335 6.59023 11.9293 6.59436C11.9252 6.5985 11.9211 6.60263 11.9169 6.60676C11.9128 6.61088 11.9087 6.61501 11.9046 6.61913C11.9005 6.62325 11.8963 6.62736 11.8922 6.63148C11.8881 6.63559 11.884 6.6397 11.8799 6.64381C11.8758 6.64791 11.8717 6.65202 11.8676 6.65612C11.8635 6.66022 11.8594 6.66431 11.8553 6.66841C11.8512 6.6725 11.8471 6.67659 11.843 6.68067C11.8389 6.68476 11.8349 6.68884 11.8308 6.69292C11.8267 6.697 11.8226 6.70108 11.8186 6.70515C11.8145 6.70922 11.8104 6.71329 11.8063 6.71735C11.8023 6.72142 11.7982 6.72548 11.7942 6.72954C11.7901 6.7336 11.786 6.73765 11.782 6.74171C11.7779 6.74576 11.7739 6.74981 11.7698 6.75385C11.7658 6.7579 11.7618 6.76194 11.7577 6.76598C11.7537 6.77001 11.7496 6.77405 11.7456 6.77808C11.7416 6.78211 11.7376 6.78614 11.7335 6.79017C11.7295 6.79419 11.7255 6.79821 11.7215 6.80223C11.7174 6.80625 11.7134 6.81027 11.7094 6.81428C11.7054 6.81829 11.7014 6.8223 11.6974 6.8263C11.6934 6.83031 11.6894 6.83431 11.6854 6.83831C11.6814 6.84231 11.6774 6.8463 11.6734 6.8503C11.6694 6.85429 11.6654 6.85828 11.6614 6.86226C11.6574 6.86625 11.6535 6.87023 11.6495 6.87421C11.6455 6.87819 11.6415 6.88217 11.6376 6.88614C11.6336 6.89011 11.6296 6.89408 11.6256 6.89805C11.6217 6.90202 11.6177 6.90598 11.6138 6.90994C11.6098 6.9139 11.6058 6.91786 11.6019 6.92181C11.5979 6.92577 11.594 6.92972 11.59 6.93367C11.5861 6.93761 11.5821 6.94156 11.5782 6.9455C11.5743 6.94944 11.5703 6.95338 11.5664 6.95731C11.5624 6.96125 11.5585 6.96518 11.5546 6.96911C11.5507 6.97304 11.5467 6.97696 11.5428 6.98089C11.5389 6.98481 11.535 6.98873 11.5311 6.99265C11.5271 6.99656 11.5232 7.00048 11.5193 7.00439C11.5154 7.0083 11.5115 7.0122 11.5076 7.01611C11.5037 7.02001 11.4998 7.02391 11.4959 7.02781C11.492 7.03171 11.4881 7.03561 11.4842 7.0395C11.4803 7.04339 11.4764 7.04728 11.4725 7.05117C11.4686 7.05505 11.4648 7.05894 11.4609 7.06282C11.457 7.0667 11.4531 7.07057 11.4492 7.07445C11.4454 7.07832 11.4415 7.08219 11.4376 7.08606C11.4338 7.08993 11.4299 7.0938 11.426 7.09766C11.4222 7.10152 11.4183 7.10538 11.4145 7.10924C11.4106 7.11309 11.4068 7.11695 11.4029 7.1208C11.399 7.12465 11.3952 7.1285 11.3914 7.13234C11.3875 7.13619 11.3837 7.14003 11.3798 7.14387C11.376 7.14771 11.3722 7.15154 11.3683 7.15538C11.3645 7.15921 11.3607 7.16304 11.3568 7.16687C11.353 7.17069 11.3492 7.17452 11.3454 7.17834C11.3415 7.18216 11.3377 7.18598 11.3339 7.1898C11.3301 7.19361 11.3263 7.19743 11.3225 7.20124C11.3187 7.20505 11.3148 7.20886 11.311 7.21266C11.3072 7.21646 11.3034 7.22027 11.2996 7.22407C11.2958 7.22787 11.292 7.23166 11.2882 7.23546C11.2844 7.23925 11.2807 7.24304 11.2769 7.24683C11.2731 7.25062 11.2693 7.2544 11.2655 7.25818C11.2617 7.26197 11.258 7.26575 11.2542 7.26952C11.2504 7.2733 11.2466 7.27708 11.2429 7.28085C11.2391 7.28462 11.2353 7.28839 11.2315 7.29215C11.2278 7.29592 11.224 7.29968 11.2203 7.30344C11.2165 7.3072 11.2127 7.31096 11.209 7.31472C11.2052 7.31847 11.2015 7.32223 11.1977 7.32598C11.194 7.32973 11.1902 7.33347 11.1865 7.33722C11.1827 7.34096 11.179 7.34471 11.1753 7.34845C11.1715 7.35218 11.1678 7.35592 11.164 7.35966C11.1603 7.36339 11.1566 7.36712 11.1528 7.37085C11.1491 7.37458 11.1454 7.37831 11.1417 7.38203C11.1379 7.38575 11.1342 7.38947 11.1305 7.39319C11.1268 7.39691 11.1231 7.40063 11.1194 7.40434C11.1156 7.40805 11.1119 7.41176 11.1082 7.41547C11.1045 7.41918 11.1008 7.42289 11.0971 7.42659C11.0934 7.43029 11.0897 7.43399 11.086 7.43769C11.0823 7.44139 11.0786 7.44508 11.0749 7.44878C11.0712 7.45247 11.0675 7.45616 11.0638 7.45985C11.0602 7.46354 11.0565 7.46722 11.0528 7.47091C11.0491 7.47459 11.0454 7.47827 11.0418 7.48195C11.0381 7.48563 11.0344 7.4893 11.0307 7.49297C11.0271 7.49665 11.0234 7.50032 11.0197 7.50399C11.016 7.50765 11.0124 7.51132 11.0087 7.51498C11.0051 7.51865 11.0014 7.52231 10.9977 7.52597C10.9941 7.52962 10.9904 7.53328 10.9868 7.53693C10.9831 7.54059 10.9795 7.54424 10.9758 7.54789C10.9722 7.55154 10.9685 7.55518 10.9649 7.55883C10.9612 7.56247 10.9576 7.56611 10.9539 7.56975C10.9503 7.57339 10.9467 7.57703 10.943 7.58066C10.9394 7.5843 10.9358 7.58793 10.9321 7.59156C10.9285 7.59519 10.9249 7.59882 10.9213 7.60244C10.9176 7.60607 10.914 7.60969 10.9104 7.61331C10.9068 7.61693 10.9031 7.62055 10.8995 7.62417C10.8959 7.62778 10.8923 7.6314 10.8887 7.63501C10.8851 7.63862 10.8815 7.64223 10.8779 7.64583C10.8743 7.64944 10.8707 7.65305 10.867 7.65665C10.8634 7.66025 10.8598 7.66385 10.8562 7.66745C10.8527 7.67105 10.8491 7.67464 10.8455 7.67824C10.8419 7.68183 10.8383 7.68542 10.8347 7.68901C10.8311 7.6926 10.8275 7.69618 10.8239 7.69977C10.8203 7.70335 10.8168 7.70694 10.8132 7.71052C10.8096 7.7141 10.806 7.71767 10.8024 7.72125C10.7989 7.72483 10.7953 7.7284 10.7917 7.73197C10.7882 7.73554 10.7846 7.73911 10.781 7.74268C10.7775 7.74625 10.7739 7.74981 10.7703 7.75337C10.7668 7.75694 10.7632 7.7605 10.7596 7.76406C10.7561 7.76762 10.7525 7.77117 10.749 7.77473C10.7454 7.77828 10.7419 7.78183 10.7383 7.78538C10.7348 7.78893 10.7312 7.79248 10.7277 7.79603C10.7241 7.79957 10.7206 7.80312 10.717 7.80666C10.7135 7.8102 10.71 7.81374 10.7064 7.81728C10.7029 7.82082 10.6993 7.82435 10.6958 7.82789C10.6923 7.83142 10.6887 7.83495 10.6852 7.83848C10.6817 7.84201 10.6782 7.84554 10.6746 7.84907C10.6711 7.85259 10.6676 7.85612 10.6641 7.85964C10.6605 7.86316 10.657 7.86668 10.6535 7.8702C10.65 7.87372 10.6465 7.87723 10.643 7.88075C10.6394 7.88426 10.6359 7.88777 10.6324 7.89128C10.6289 7.89479 10.6254 7.8983 10.6219 7.90181C10.6184 7.90531 10.6149 7.90882 10.6114 7.91232C10.6079 7.91582 10.6044 7.91932 10.6009 7.92282C10.5974 7.92632 10.5939 7.92981 10.5904 7.93331C10.5869 7.9368 10.5834 7.9403 10.5799 7.94379C10.5764 7.94728 10.5729 7.95077 10.5694 7.95425C10.566 7.95774 10.5625 7.96123 10.559 7.96471C10.5555 7.96819 10.552 7.97167 10.5485 7.97515C10.5451 7.97863 10.5416 7.98211 10.5381 7.98559C10.5346 7.98906 10.5312 7.99254 10.5277 7.99601C10.5242 7.99948 10.5207 8.00295 10.5173 8.00642C10.5138 8.00989 10.5103 8.01336 10.5069 8.01682C10.5034 8.02029 10.4999 8.02375 10.4965 8.02721C10.493 8.03068 10.4896 8.03414 10.4861 8.03759C10.4826 8.04105 10.4792 8.04451 10.4757 8.04796C10.4723 8.05142 10.4688 8.05487 10.4654 8.05832C10.4619 8.06177 10.4585 8.06522 10.455 8.06867C10.4516 8.07212 10.4481 8.07556 10.4447 8.07901C10.4412 8.08245 10.4378 8.0859 10.4344 8.08934C10.4309 8.09278 10.4275 8.09622 10.424 8.09965C10.4206 8.10309 10.4172 8.10653 10.4137 8.10996C10.4103 8.1134 10.4069 8.11683 10.4034 8.12026C10.4 8.12369 10.3966 8.12712 10.3931 8.13055C10.3897 8.13398 10.3863 8.1374 10.3829 8.14083C10.3794 8.14425 10.376 8.14767 10.3726 8.1511C10.3692 8.15452 10.3658 8.15794 10.3623 8.16136C10.3589 8.16477 10.3555 8.16819 10.3521 8.17161C10.3487 8.17502 10.3453 8.17843 10.3419 8.18185C10.3384 8.18526 10.335 8.18867 10.3316 8.19208C10.3282 8.19549 10.3248 8.19889 10.3214 8.2023C10.318 8.2057 10.3146 8.20911 10.3112 8.21251C10.3078 8.21591 10.3044 8.21931 10.301 8.22271C10.2976 8.22611 10.2942 8.22951 10.2908 8.23291C10.2874 8.2363 10.284 8.2397 10.2806 8.24309C10.2772 8.24649 10.2738 8.24988 10.2704 8.25327C10.267 8.25666 10.2636 8.26005 10.2603 8.26344C10.2569 8.26683 10.2535 8.27021 10.2501 8.2736C10.2467 8.27698 10.2433 8.28037 10.24 8.28375C10.2366 8.28713 10.2332 8.29051 10.2298 8.29389C10.2264 8.29727 10.2231 8.30065 10.2197 8.30402C10.2163 8.3074 10.2129 8.31077 10.2095 8.31415C10.2062 8.31752 10.2028 8.32089 10.1994 8.32427C10.1961 8.32764 10.1927 8.33101 10.1893 8.33437C10.186 8.33774 10.1826 8.34111 10.1792 8.34448C10.1759 8.34784 10.1725 8.35121 10.1691 8.35457C10.1658 8.35793 10.1624 8.36129 10.159 8.36465C10.1557 8.36801 10.1523 8.37137 10.149 8.37473C10.1456 8.37809 10.1423 8.38144 10.1389 8.3848C10.1355 8.38815 10.1322 8.39151 10.1288 8.39486C10.1255 8.39821 10.1221 8.40156 10.1188 8.40491C10.1154 8.40826 10.1121 8.41161 10.1087 8.41496C10.1054 8.41831 10.102 8.42165 10.0987 8.425C10.0954 8.42834 10.092 8.43169 10.0887 8.43503C10.0853 8.43837 10.082 8.44172 10.0786 8.44506C10.0753 8.4484 10.072 8.45174 10.0686 8.45507C10.0653 8.45841 10.062 8.46175 10.0586 8.46508C10.0553 8.46842 10.0519 8.47175 10.0486 8.47509C10.0453 8.47842 10.0419 8.48175 10.0386 8.48508C10.0353 8.48841 10.032 8.49174 10.0286 8.49507C10.0253 8.4984 10.022 8.50173 10.0186 8.50505C10.0153 8.50838 10.012 8.51171 10.0087 8.51503C10.0053 8.51835 10.002 8.52168 9.9987 8.525C9.99538 8.52832 9.99206 8.53164 9.98874 8.53496C9.98542 8.53828 9.9821 8.5416 9.97878 8.54492C9.97546 8.54824 9.97214 8.55155 9.96883 8.55487C9.96551 8.55818 9.9622 8.5615 9.95889 8.56481C9.95557 8.56813 9.95226 8.57144 9.94895 8.57475C9.94564 8.57806 9.94233 8.58137 9.93902 8.58468C9.93571 8.58799 9.9324 8.5913 9.92909 8.59461C9.92578 8.59791 9.92248 8.60122 9.91917 8.60453C9.91587 8.60783 9.91256 8.61114 9.90926 8.61444C9.90595 8.61774 9.90265 8.62105 9.89935 8.62435C9.89605 8.62765 9.89275 8.63095 9.88945 8.63425C9.88615 8.63755 9.88285 8.64085 9.87955 8.64415C9.87625 8.64745 9.87295 8.65074 9.86966 8.65404C9.86636 8.65734 9.86307 8.66063 9.85977 8.66392C9.85648 8.66722 9.85319 8.67051 9.84989 8.67381C9.8466 8.6771 9.84331 8.68039 9.84002 8.68368C9.83673 8.68697 9.83344 8.69026 9.83015 8.69355C9.82686 8.69684 9.82357 8.70013 9.82028 8.70342C9.81699 8.7067 9.81371 8.70999 9.81042 8.71328C9.80714 8.71656 9.80385 8.71985 9.80057 8.72313C9.79728 8.72641 9.794 8.7297 9.79072 8.73298C9.78743 8.73626 9.78415 8.73954 9.78087 8.74283C9.77759 8.74611 9.77431 8.74939 9.77103 8.75267C9.76775 8.75595 9.76447 8.75923 9.76119 8.7625C9.75792 8.76578 9.75464 8.76906 9.75136 8.77233C9.74809 8.77561 9.74481 8.77889 9.74154 8.78216C9.73826 8.78544 9.73499 8.78871 9.73171 8.79198C9.72844 8.79526 9.72517 8.79853 9.72189 8.8018C9.71862 8.80508 9.71535 8.80835 9.71208 8.81162C9.70881 8.81489 9.70554 8.81816 9.70227 8.82143C9.699 8.8247 9.69573 8.82797 9.69246 8.83123C9.6892 8.8345 9.68593 8.83777 9.68266 8.84104C9.67939 8.8443 9.67613 8.84757 9.67286 8.85084C9.6696 8.8541 9.66633 8.85737 9.66307 8.86063C9.6598 8.86389 9.65654 8.86716 9.65328 8.87042C9.65001 8.87368 9.64675 8.87695 9.64349 8.88021C9.64023 8.88347 9.63697 8.88673 9.6337 8.88999C9.63044 8.89325 9.62718 8.89651 9.62392 8.89977C9.62066 8.90303 9.6174 8.90629 9.61415 8.90955C9.61089 8.91281 9.60763 8.91607 9.60437 8.91933C9.60111 8.92258 9.59786 8.92584 9.5946 8.9291C9.59134 8.93235 9.58809 8.93561 9.58483 8.93886C9.58158 8.94212 9.57832 8.94537 9.57507 8.94863C9.57181 8.95188 9.56856 8.95514 9.56531 8.95839C9.56205 8.96164 9.5588 8.9649 9.55555 8.96815C9.5523 8.9714 9.54904 8.97465 9.54579 8.97791C9.54254 8.98116 9.53929 8.98441 9.53604 8.98766C9.53279 8.99091 9.52954 8.99416 9.52629 8.99741C9.52304 9.00066 9.51979 9.00391 9.51654 9.00716C9.51329 9.01041 9.51004 9.01366 9.50679 9.01691C9.50354 9.02015 9.5003 9.0234 9.49705 9.02665C9.4938 9.0299 9.49055 9.03314 9.48731 9.03639C9.48406 9.03964 9.48081 9.04288 9.47757 9.04613C9.47432 9.04938 9.47108 9.05262 9.46783 9.05587C9.46458 9.05911 9.46134 9.06236 9.45809 9.0656C9.45485 9.06885 9.45161 9.07209 9.44836 9.07534C9.44512 9.07858 9.44187 9.08182 9.43863 9.08507C9.43539 9.08831 9.43214 9.09155 9.4289 9.0948C9.42566 9.09804 9.42241 9.10128 9.41917 9.10453C9.41593 9.10777 9.41269 9.11101 9.40945 9.11425C9.4062 9.11749 9.40296 9.12074 9.39972 9.12398C9.39648 9.12722 9.39324 9.13046 9.39 9.1337C9.38676 9.13694 9.38352 9.14018 9.38027 9.14342C9.37703 9.14666 9.37379 9.1499 9.37055 9.15314C9.36731 9.15638 9.36407 9.15962 9.36083 9.16286C9.35759 9.1661 9.35435 9.16934 9.35112 9.17258C9.34788 9.17582 9.34464 9.17906 9.3414 9.1823C9.33816 9.18554 9.33492 9.18878 9.33168 9.19202C9.32844 9.19526 9.3252 9.19849 9.32196 9.20173C9.31873 9.20497 9.31549 9.20821 9.31225 9.21145C9.30901 9.21469 9.30577 9.21793 9.30253 9.22116C9.2993 9.2244 9.29606 9.22764 9.29282 9.23088C9.28958 9.23411 9.28634 9.23735 9.28311 9.24059C9.27987 9.24383 9.27663 9.24707 9.27339 9.2503C9.27016 9.25354 9.26692 9.25678 9.26368 9.26002C9.26044 9.26325 9.25721 9.26649 9.25397 9.26973C9.25073 9.27297 9.24749 9.2762 9.24426 9.27944C9.24102 9.28268 9.23778 9.28592 9.23454 9.28915C9.23131 9.29239 9.22807 9.29563 9.22483 9.29887C9.22159 9.3021 9.21836 9.30534 9.21512 9.30858C9.21188 9.31182 9.20864 9.31505 9.20541 9.31829C9.20217 9.32153 9.19893 9.32477 9.19569 9.328C9.19246 9.33124 9.18922 9.33448 9.18598 9.33772C9.18274 9.34095 9.17951 9.34419 9.17627 9.34743C9.17303 9.35067 9.16979 9.35391 9.16655 9.35714C9.16332 9.36038 9.16008 9.36362 9.15684 9.36686C9.1536 9.3701 9.15036 9.37334 9.14712 9.37657C9.14389 9.37981 9.14065 9.38305 9.13741 9.38629C9.13417 9.38953 9.13093 9.39277 9.12769 9.39601C9.12445 9.39925 9.12121 9.40249 9.11797 9.40572C9.11473 9.40896 9.11149 9.4122 9.10825 9.41544C9.10501 9.41868 9.10177 9.42192 9.09853 9.42516C9.09529 9.4284 9.09205 9.43164 9.08881 9.43488C9.08557 9.43812 9.08233 9.44137 9.07909 9.44461C9.07585 9.44785 9.07261 9.45109 9.06937 9.45433C9.06613 9.45757 9.06288 9.46081 9.05964 9.46405C9.0564 9.4673 9.05316 9.47054 9.04992 9.47378C9.04667 9.47702 9.04343 9.48027 9.04019 9.48351C9.03695 9.48675 9.0337 9.49 9.03046 9.49324C9.02721 9.49648 9.02397 9.49973 9.02073 9.50297C9.01748 9.50621 9.01424 9.50946 9.01099 9.5127C9.00775 9.51595 9.0045 9.51919 9.00126 9.52244C8.99801 9.52569 8.99477 9.52893 8.99152 9.53218C8.98827 9.53542 8.98503 9.53867 8.98178 9.54192C8.97853 9.54516 8.97529 9.54841 8.97204 9.55166C8.96879 9.55491 8.96554 9.55815 8.9623 9.5614C8.95905 9.56465 8.9558 9.5679 8.95255 9.57115C8.9493 9.5744 8.94605 9.57765 8.9428 9.5809C8.93955 9.58415 8.9363 9.5874 8.93305 9.59065C8.9298 9.5939 8.92655 9.59715 8.9233 9.6004C8.92004 9.60365 8.91679 9.6069 8.91354 9.61016C8.91029 9.61341 8.90703 9.61666 8.90378 9.61992C8.90053 9.62317 8.89727 9.62642 8.89402 9.62968C8.89077 9.63293 8.88751 9.63619 8.88425 9.63944C8.881 9.6427 8.87774 9.64595 8.87449 9.64921C8.87123 9.65247 8.86797 9.65572 8.86472 9.65898C8.86146 9.66224 8.8582 9.6655 8.85494 9.66876C8.85168 9.67201 8.84842 9.67527 8.84516 9.67853C8.8419 9.68179 8.83864 9.68505 8.83538 9.68831C8.83212 9.69157 8.82886 9.69484 8.8256 9.6981C8.82234 9.70136 8.81908 9.70462 8.81581 9.70789C8.81255 9.71115 8.80929 9.71441 8.80602 9.71768C8.80276 9.72094 8.79949 9.72421 8.79623 9.72747C8.79296 9.73074 8.78969 9.734 8.78643 9.73727C8.78316 9.74054 8.77989 9.7438 8.77662 9.74707C8.77336 9.75034 8.77009 9.75361 8.76682 9.75688C8.76355 9.76015 8.76028 9.76342 8.75701 9.76669C8.75374 9.76996 8.75047 9.77323 8.74719 9.7765C8.74392 9.77978 8.74065 9.78305 8.73738 9.78632C8.7341 9.7896 8.73083 9.79287 8.72755 9.79615C8.72428 9.79942 8.721 9.8027 8.71772 9.80597C8.71445 9.80925 8.71117 9.81253 8.70789 9.8158C8.70462 9.81908 8.70134 9.82236 8.69806 9.82564C8.69478 9.82892 8.6915 9.8322 8.68822 9.83548C8.68494 9.83876 8.68165 9.84204 8.67837 9.84533C8.67509 9.84861 8.67181 9.85189 8.66852 9.85518C8.66524 9.85846 8.66195 9.86175 8.65867 9.86503C8.65538 9.86832 8.65209 9.8716 8.64881 9.87489C8.64552 9.87818 8.64223 9.88147 8.63894 9.88476C8.63565 9.88805 8.63236 9.89134 8.62907 9.89463C8.62578 9.89792 8.62249 9.90121 8.6192 9.9045C8.6159 9.90779 8.61261 9.91109 8.60932 9.91438C8.60602 9.91768 8.60273 9.92097 8.59943 9.92427C8.59613 9.92756 8.59284 9.93086 8.58954 9.93416C8.58624 9.93746 8.58294 9.94076 8.57964 9.94406C8.57634 9.94736 8.57304 9.95066 8.56974 9.95396C8.56644 9.95726 8.56313 9.96056 8.55983 9.96387C8.55653 9.96717 8.55322 9.97047 8.54992 9.97378C8.54661 9.97709 8.54331 9.98039 8.54 9.9837C8.53669 9.98701 8.53338 9.99032 8.53007 9.99363C8.52676 9.99693 8.52345 10.0002 8.52014 10.0036C8.51683 10.0069 8.51352 10.0102 8.5102 10.0135C8.50689 10.0168 8.50357 10.0201 8.50026 10.0234C8.49694 10.0268 8.49363 10.0301 8.49031 10.0334C8.48699 10.0367 8.48367 10.04 8.48035 10.0433C8.47703 10.0467 8.47371 10.05 8.47039 10.0533C8.46707 10.0566 8.46375 10.06 8.46042 10.0633C8.4571 10.0666 8.45377 10.0699 8.45044 10.0733C8.44712 10.0766 8.44379 10.0799 8.44046 10.0832C8.43713 10.0866 8.4338 10.0899 8.43047 10.0932C8.42714 10.0966 8.42381 10.0999 8.42048 10.1032C8.41714 10.1066 8.41381 10.1099 8.41047 10.1132C8.40714 10.1166 8.4038 10.1199 8.40046 10.1232C8.39713 10.1266 8.39379 10.1299 8.39045 10.1333C8.38711 10.1366 8.38376 10.1399 8.38042 10.1433C8.37708 10.1466 8.37374 10.15 8.37039 10.1533C8.36705 10.1567 8.3637 10.16 8.36035 10.1633C8.357 10.1667 8.35365 10.17 8.3503 10.1734C8.34695 10.1767 8.3436 10.1801 8.34025 10.1834C8.3369 10.1868 8.33354 10.1902 8.33019 10.1935C8.32683 10.1969 8.32348 10.2002 8.32012 10.2036C8.31676 10.2069 8.3134 10.2103 8.31004 10.2137C8.30668 10.217 8.30332 10.2204 8.29996 10.2237C8.2966 10.2271 8.29323 10.2305 8.28987 10.2338C8.2865 10.2372 8.28313 10.2406 8.27977 10.2439C8.2764 10.2473 8.27303 10.2507 8.26966 10.254C8.26629 10.2574 8.26291 10.2608 8.25954 10.2642C8.25617 10.2675 8.25279 10.2709 8.24941 10.2743C8.24604 10.2777 8.24266 10.281 8.23928 10.2844C8.2359 10.2878 8.23252 10.2912 8.22914 10.2946C8.22576 10.2979 8.22237 10.3013 8.21899 10.3047C8.2156 10.3081 8.21222 10.3115 8.20883 10.3149C8.20544 10.3183 8.20205 10.3216 8.19866 10.325C8.19527 10.3284 8.19188 10.3318 8.18848 10.3352C8.18509 10.3386 8.1817 10.342 8.1783 10.3454C8.1749 10.3488 8.1715 10.3522 8.1681 10.3556C8.1647 10.359 8.1613 10.3624 8.1579 10.3658C8.1545 10.3692 8.15109 10.3726 8.14769 10.376C8.14428 10.3794 8.14088 10.3828 8.13747 10.3862C8.13406 10.3896 8.13065 10.393 8.12724 10.3965C8.12382 10.3999 8.12041 10.4033 8.117 10.4067C8.11358 10.4101 8.11016 10.4135 8.10675 10.417C8.10333 10.4204 8.09991 10.4238 8.09649 10.4272C8.09307 10.4306 8.08964 10.4341 8.08622 10.4375C8.08279 10.4409 8.07937 10.4443 8.07594 10.4478C8.07251 10.4512 8.06908 10.4546 8.06565 10.458C8.06222 10.4615 8.05879 10.4649 8.05535 10.4683C8.05192 10.4718 8.04848 10.4752 8.04505 10.4787C8.04161 10.4821 8.03817 10.4855 8.03473 10.489C8.03129 10.4924 8.02784 10.4959 8.0244 10.4993C8.02095 10.5027 8.01751 10.5062 8.01406 10.5096C8.01061 10.5131 8.00716 10.5165 8.00371 10.52C8.00026 10.5234 7.99681 10.5269 7.99335 10.5303C7.9899 10.5338 7.98644 10.5373 7.98298 10.5407C7.97953 10.5442 7.97607 10.5476 7.9726 10.5511C7.96914 10.5546 7.96568 10.558 7.96221 10.5615C7.95875 10.5649 7.95528 10.5684 7.95181 10.5719C7.94834 10.5754 7.94487 10.5788 7.9414 10.5823C7.93793 10.5858 7.93445 10.5892 7.93098 10.5927C7.9275 10.5962 7.92402 10.5997 7.92054 10.6032C7.91706 10.6066 7.91358 10.6101 7.9101 10.6136C7.90662 10.6171 7.90313 10.6206 7.89964 10.6241C7.89616 10.6275 7.89267 10.631 7.88918 10.6345C7.88569 10.638 7.88219 10.6415 7.8787 10.645C7.8752 10.6485 7.87171 10.652 7.86821 10.6555C7.86471 10.659 7.86121 10.6625 7.85771 10.666C7.85421 10.6695 7.8507 10.673 7.8472 10.6765C7.84369 10.68 7.84018 10.6835 7.83667 10.687C7.83316 10.6905 7.82965 10.694 7.82614 10.6976C7.82262 10.7011 7.81911 10.7046 7.81559 10.7081C7.81207 10.7116 7.80855 10.7151 7.80503 10.7187C7.80151 10.7222 7.79798 10.7257 7.79446 10.7292C7.79093 10.7328 7.7874 10.7363 7.78387 10.7398C7.78034 10.7434 7.77681 10.7469 7.77328 10.7504C7.76975 10.754 7.76621 10.7575 7.76267 10.761C7.75913 10.7646 7.75559 10.7681 7.75205 10.7716C7.74851 10.7752 7.74497 10.7787 7.74142 10.7823C7.73787 10.7858 7.73432 10.7894 7.73077 10.7929C7.72722 10.7965 7.72367 10.8 7.72012 10.8036C7.71656 10.8071 7.71301 10.8107 7.70945 10.8143C7.70589 10.8178 7.70233 10.8214 7.69876 10.8249C7.6952 10.8285 7.69164 10.8321 7.68807 10.8356C7.6845 10.8392 7.68093 10.8428 7.67736 10.8463C7.67379 10.8499 7.67022 10.8535 7.66664 10.8571C7.66306 10.8606 7.65949 10.8642 7.65591 10.8678C7.65233 10.8714 7.64874 10.875 7.64516 10.8785C7.64157 10.8821 7.63799 10.8857 7.6344 10.8893C7.63081 10.8929 7.62722 10.8965 7.62363 10.9001C7.62003 10.9037 7.61644 10.9073 7.61284 10.9109C7.60924 10.9145 7.60564 10.9181 7.60204 10.9217C7.59844 10.9253 7.59483 10.9289 7.59122 10.9325C7.58762 10.9361 7.58401 10.9397 7.5804 10.9433C7.57679 10.9469 7.57317 10.9505 7.56956 10.9541C7.56594 10.9578 7.56232 10.9614 7.5587 10.965C7.55508 10.9686 7.55146 10.9722 7.54783 10.9759C7.54421 10.9795 7.54058 10.9831 7.53695 10.9867C7.53332 10.9904 7.52969 10.994 7.52605 10.9976C7.52242 11.0013 7.51878 11.0049 7.51514 11.0086C7.5115 11.0122 7.50786 11.0158 7.50422 11.0195C7.50057 11.0231 7.49693 11.0268 7.49328 11.0304C7.48963 11.0341 7.48598 11.0377 7.48232 11.0414C7.47867 11.045 7.47501 11.0487 7.47136 11.0523C7.4677 11.056 7.46404 11.0597 7.46037 11.0633C7.45671 11.067 7.45304 11.0707 7.44938 11.0743C7.44571 11.078 7.44204 11.0817 7.43836 11.0853C7.43469 11.089 7.43102 11.0927 7.42734 11.0964C7.42366 11.1 7.41998 11.1037 7.4163 11.1074C7.41261 11.1111 7.40893 11.1148 7.40524 11.1185C7.40155 11.1221 7.39786 11.1258 7.39417 11.1295C7.39048 11.1332 7.38678 11.1369 7.38308 11.1406C7.37938 11.1443 7.37568 11.148 7.37198 11.1517C7.36828 11.1554 7.36457 11.1591 7.36086 11.1628C7.35715 11.1665 7.35344 11.1703 7.34973 11.174C7.34602 11.1777 7.3423 11.1814 7.33858 11.1851C7.33486 11.1888 7.33114 11.1926 7.32742 11.1963C7.3237 11.2 7.31997 11.2037 7.31624 11.2075C7.31251 11.2112 7.30878 11.2149 7.30505 11.2187C7.30131 11.2224 7.29757 11.2261 7.29384 11.2299C7.2901 11.2336 7.28635 11.2373 7.28261 11.2411C7.27886 11.2448 7.27512 11.2486 7.27137 11.2523C7.26762 11.2561 7.26386 11.2598 7.26011 11.2636C7.25635 11.2673 7.2526 11.2711 7.24883 11.2749C7.24507 11.2786 7.24131 11.2824 7.23754 11.2862C7.23378 11.2899 7.23001 11.2937 7.22624 11.2975C7.22247 11.3012 7.21869 11.305 7.21491 11.3088C7.21114 11.3126 7.20736 11.3163 7.20357 11.3201C7.19979 11.3239 7.19601 11.3277 7.19222 11.3315C7.18843 11.3353 7.18464 11.3391 7.18085 11.3429C7.17705 11.3466 7.17326 11.3504 7.16946 11.3542C7.16566 11.358 7.16186 11.3618 7.15805 11.3656C7.15425 11.3695 7.15044 11.3733 7.14663 11.3771C7.14282 11.3809 7.139 11.3847 7.13519 11.3885C7.13137 11.3923 7.12755 11.3961 7.12373 11.4C7.11991 11.4038 7.11608 11.4076 7.11226 11.4114C7.10843 11.4153 7.1046 11.4191 7.10077 11.4229C7.09693 11.4268 7.0931 11.4306 7.08926 11.4344C7.08542 11.4383 7.08158 11.4421 7.07773 11.446C7.07389 11.4498 7.07004 11.4537 7.06619 11.4575C7.06234 11.4614 7.05848 11.4652 7.05463 11.4691C7.05077 11.4729 7.04691 11.4768 7.04305 11.4806C7.03919 11.4845 7.03532 11.4884 7.03145 11.4922C7.02758 11.4961 7.02371 11.5 7.01984 11.5039C7.01596 11.5077 7.01209 11.5116 7.00821 11.5155C7.00433 11.5194 7.00044 11.5233 6.99656 11.5271C6.99267 11.531 6.98878 11.5349 6.98489 11.5388C6.981 11.5427 6.9771 11.5466 6.9732 11.5505C6.96931 11.5544 6.9654 11.5583 6.9615 11.5622C6.9576 11.5661 6.95369 11.57 6.94978 11.5739C6.94587 11.5778 6.94195 11.5817 6.93804 11.5857C6.93412 11.5896 6.9302 11.5935 6.92628 11.5974C6.92235 11.6013 6.91843 11.6053 6.9145 11.6092C6.91057 11.6131 6.90664 11.6171 6.9027 11.621C6.89877 11.6249 6.89483 11.6289 6.89089 11.6328C6.88695 11.6367 6.883 11.6407 6.87906 11.6446C6.87511 11.6486 6.87116 11.6525 6.8672 11.6565C6.86325 11.6604 6.85929 11.6644 6.85533 11.6684C6.85137 11.6723 6.84741 11.6763 6.84344 11.6803C6.83947 11.6842 6.8355 11.6882 6.83153 11.6922C6.82756 11.6961 6.82358 11.7001 6.8196 11.7041C6.81562 11.7081 6.81164 11.7121 6.80765 11.716C6.80367 11.72 6.79968 11.724 6.79569 11.728C6.79169 11.732 6.7877 11.736 6.7837 11.74C6.7797 11.744 6.7757 11.748 6.77169 11.752C6.76769 11.756 6.76368 11.76 6.75967 11.764C6.75566 11.768 6.75164 11.7721 6.74762 11.7761C6.7436 11.7801 6.73958 11.7841 6.73556 11.7881C6.73153 11.7922 6.7275 11.7962 6.72347 11.8002C6.71944 11.8043 6.7154 11.8083 6.71137 11.8123C6.70733 11.8164 6.70329 11.8204 6.69924 11.8245C6.6952 11.8285 6.69115 11.8325 6.6871 11.8366C6.68304 11.8407 6.67899 11.8447 6.67493 11.8488C6.67087 11.8528 6.66681 11.8569 6.66274 11.861C6.65868 11.865 6.65461 11.8691 6.65054 11.8732C6.64647 11.8772 6.64239 11.8813 6.63831 11.8854C6.63423 11.8895 6.63015 11.8935 6.62606 11.8976C6.62198 11.9017 6.61789 11.9058 6.6138 11.9099C6.6097 11.914 6.60561 11.9181 6.60151 11.9222C6.59741 11.9263 6.59331 11.9304 6.5892 11.9345C6.58509 11.9386 6.58098 11.9427 6.57687 11.9468C6.57276 11.9509 6.56864 11.9551 6.56452 11.9592C6.5604 11.9633 6.55627 11.9674 6.55215 11.9716C6.54802 11.9757 6.54389 11.9798 6.53975 11.9839C6.53562 11.9881 6.53148 11.9922 6.52734 11.9964C6.5232 12.0005 6.51905 12.0046 6.5149 12.0088L7.22201 12.7159C7.22616 12.7118 7.2303 12.7076 7.23444 12.7035C7.23859 12.6993 7.24272 12.6952 7.24686 12.6911C7.25099 12.6869 7.25512 12.6828 7.25925 12.6787C7.26338 12.6745 7.2675 12.6704 7.27162 12.6663C7.27574 12.6622 7.27986 12.658 7.28398 12.6539C7.28809 12.6498 7.2922 12.6457 7.29631 12.6416C7.30041 12.6375 7.30451 12.6334 7.30861 12.6293C7.31271 12.6252 7.31681 12.6211 7.3209 12.617C7.325 12.6129 7.32908 12.6088 7.33317 12.6047C7.33726 12.6007 7.34134 12.5966 7.34542 12.5925C7.3495 12.5884 7.35357 12.5843 7.35764 12.5803C7.36172 12.5762 7.36579 12.5721 7.36985 12.5681C7.37392 12.564 7.37798 12.5599 7.38204 12.5559C7.3861 12.5518 7.39015 12.5478 7.3942 12.5437C7.39825 12.5397 7.4023 12.5356 7.40635 12.5316C7.41039 12.5275 7.41443 12.5235 7.41847 12.5194C7.42251 12.5154 7.42655 12.5114 7.43058 12.5073C7.43461 12.5033 7.43864 12.4993 7.44266 12.4952C7.44669 12.4912 7.45071 12.4872 7.45473 12.4832C7.45875 12.4792 7.46276 12.4751 7.46677 12.4711C7.47079 12.4671 7.4748 12.4631 7.4788 12.4591C7.48281 12.4551 7.48681 12.4511 7.49081 12.4471C7.49481 12.4431 7.4988 12.4391 7.50279 12.4351C7.50679 12.4311 7.51078 12.4271 7.51476 12.4231C7.51875 12.4192 7.52273 12.4152 7.52671 12.4112C7.53069 12.4072 7.53466 12.4032 7.53864 12.3993C7.54261 12.3953 7.54658 12.3913 7.55055 12.3874C7.55451 12.3834 7.55848 12.3794 7.56244 12.3755C7.5664 12.3715 7.57036 12.3676 7.57431 12.3636C7.57826 12.3596 7.58221 12.3557 7.58616 12.3517C7.59011 12.3478 7.59405 12.3439 7.598 12.3399C7.60194 12.336 7.60588 12.332 7.60981 12.3281C7.61375 12.3242 7.61768 12.3202 7.62161 12.3163C7.62554 12.3124 7.62946 12.3084 7.63338 12.3045C7.63731 12.3006 7.64123 12.2967 7.64514 12.2928C7.64906 12.2889 7.65297 12.2849 7.65688 12.281C7.66079 12.2771 7.6647 12.2732 7.66861 12.2693C7.67251 12.2654 7.67641 12.2615 7.68031 12.2576C7.68421 12.2537 7.6881 12.2498 7.692 12.2459C7.69589 12.242 7.69978 12.2381 7.70366 12.2342C7.70755 12.2304 7.71143 12.2265 7.71531 12.2226C7.71919 12.2187 7.72307 12.2148 7.72695 12.211C7.73082 12.2071 7.73469 12.2032 7.73856 12.1994C7.74243 12.1955 7.74629 12.1916 7.75015 12.1878C7.75402 12.1839 7.75788 12.18 7.76173 12.1762C7.76559 12.1723 7.76944 12.1685 7.77329 12.1646C7.77715 12.1608 7.78099 12.1569 7.78484 12.1531C7.78868 12.1492 7.79252 12.1454 7.79636 12.1415C7.8002 12.1377 7.80404 12.1339 7.80787 12.13C7.81171 12.1262 7.81554 12.1224 7.81936 12.1185C7.82319 12.1147 7.82702 12.1109 7.83084 12.1071C7.83466 12.1033 7.83848 12.0994 7.84229 12.0956C7.84611 12.0918 7.84992 12.088 7.85373 12.0842C7.85754 12.0804 7.86135 12.0766 7.86516 12.0728C7.86896 12.0689 7.87276 12.0651 7.87656 12.0613C7.88036 12.0575 7.88416 12.0538 7.88795 12.05C7.89175 12.0462 7.89554 12.0424 7.89933 12.0386C7.90311 12.0348 7.9069 12.031 7.91068 12.0272C7.91446 12.0234 7.91824 12.0197 7.92202 12.0159C7.9258 12.0121 7.92957 12.0083 7.93334 12.0046C7.93712 12.0008 7.94088 11.997 7.94465 11.9933C7.94842 11.9895 7.95218 11.9857 7.95594 11.982C7.9597 11.9782 7.96346 11.9745 7.96722 11.9707C7.97097 11.9669 7.97472 11.9632 7.97847 11.9594C7.98222 11.9557 7.98597 11.9519 7.98972 11.9482C7.99346 11.9445 7.9972 11.9407 8.00094 11.937C8.00468 11.9332 8.00842 11.9295 8.01215 11.9258C8.01589 11.922 8.01962 11.9183 8.02335 11.9146C8.02708 11.9108 8.0308 11.9071 8.03453 11.9034C8.03825 11.8997 8.04197 11.8959 8.04569 11.8922C8.04941 11.8885 8.05312 11.8848 8.05684 11.8811C8.06055 11.8774 8.06426 11.8736 8.06797 11.8699C8.07168 11.8662 8.07538 11.8625 8.07909 11.8588C8.08279 11.8551 8.08649 11.8514 8.09019 11.8477C8.09389 11.844 8.09758 11.8403 8.10127 11.8366C8.10497 11.8329 8.10866 11.8293 8.11235 11.8256C8.11603 11.8219 8.11972 11.8182 8.1234 11.8145C8.12709 11.8108 8.13077 11.8071 8.13444 11.8035C8.13812 11.7998 8.1418 11.7961 8.14547 11.7924C8.14914 11.7888 8.15281 11.7851 8.15648 11.7814C8.16015 11.7778 8.16382 11.7741 8.16748 11.7704C8.17114 11.7668 8.1748 11.7631 8.17846 11.7594C8.18212 11.7558 8.18578 11.7521 8.18943 11.7485C8.19308 11.7448 8.19674 11.7412 8.20038 11.7375C8.20403 11.7339 8.20768 11.7302 8.21132 11.7266C8.21497 11.7229 8.21861 11.7193 8.22225 11.7157C8.22589 11.712 8.22952 11.7084 8.23316 11.7048C8.23679 11.7011 8.24043 11.6975 8.24406 11.6939C8.24769 11.6902 8.25131 11.6866 8.25494 11.683C8.25856 11.6793 8.26219 11.6757 8.26581 11.6721C8.26943 11.6685 8.27305 11.6649 8.27666 11.6612C8.28028 11.6576 8.28389 11.654 8.2875 11.6504C8.29111 11.6468 8.29472 11.6432 8.29833 11.6396C8.30194 11.636 8.30554 11.6324 8.30914 11.6288C8.31275 11.6252 8.31635 11.6216 8.31995 11.618C8.32354 11.6144 8.32714 11.6108 8.33073 11.6072C8.33433 11.6036 8.33792 11.6 8.34151 11.5964C8.34509 11.5928 8.34868 11.5892 8.35227 11.5856C8.35585 11.5821 8.35943 11.5785 8.36301 11.5749C8.36659 11.5713 8.37017 11.5677 8.37375 11.5642C8.37732 11.5606 8.3809 11.557 8.38447 11.5534C8.38804 11.5499 8.39161 11.5463 8.39518 11.5427C8.39874 11.5392 8.40231 11.5356 8.40587 11.532C8.40943 11.5285 8.413 11.5249 8.41655 11.5214C8.42011 11.5178 8.42367 11.5142 8.42722 11.5107C8.43078 11.5071 8.43433 11.5036 8.43788 11.5C8.44143 11.4965 8.44498 11.4929 8.44853 11.4894C8.45207 11.4858 8.45562 11.4823 8.45916 11.4788C8.4627 11.4752 8.46624 11.4717 8.46978 11.4681C8.47332 11.4646 8.47685 11.4611 8.48039 11.4575C8.48392 11.454 8.48745 11.4505 8.49098 11.4469C8.49451 11.4434 8.49804 11.4399 8.50156 11.4363C8.50509 11.4328 8.50861 11.4293 8.51214 11.4258C8.51566 11.4223 8.51918 11.4187 8.5227 11.4152C8.52621 11.4117 8.52973 11.4082 8.53324 11.4047C8.53676 11.4012 8.54027 11.3976 8.54378 11.3941C8.54729 11.3906 8.5508 11.3871 8.5543 11.3836C8.55781 11.3801 8.56131 11.3766 8.56481 11.3731C8.56832 11.3696 8.57182 11.3661 8.57532 11.3626C8.57881 11.3591 8.58231 11.3556 8.58581 11.3521C8.5893 11.3486 8.59279 11.3451 8.59628 11.3416C8.59977 11.3381 8.60326 11.3346 8.60675 11.3312C8.61024 11.3277 8.61372 11.3242 8.61721 11.3207C8.62069 11.3172 8.62417 11.3137 8.62765 11.3103C8.63113 11.3068 8.63461 11.3033 8.63808 11.2998C8.64156 11.2964 8.64503 11.2929 8.64851 11.2894C8.65198 11.2859 8.65545 11.2825 8.65892 11.279C8.66239 11.2755 8.66586 11.2721 8.66932 11.2686C8.67279 11.2651 8.67625 11.2617 8.67971 11.2582C8.68317 11.2547 8.68663 11.2513 8.69009 11.2478C8.69355 11.2444 8.69701 11.2409 8.70046 11.2375C8.70391 11.234 8.70737 11.2305 8.71082 11.2271C8.71427 11.2236 8.71772 11.2202 8.72117 11.2167C8.72462 11.2133 8.72806 11.2098 8.73151 11.2064C8.73495 11.203 8.73839 11.1995 8.74183 11.1961C8.74527 11.1926 8.74871 11.1892 8.75215 11.1858C8.75559 11.1823 8.75903 11.1789 8.76246 11.1755C8.76589 11.172 8.76933 11.1686 8.77276 11.1652C8.77619 11.1617 8.77962 11.1583 8.78305 11.1549C8.78647 11.1514 8.7899 11.148 8.79332 11.1446C8.79675 11.1412 8.80017 11.1377 8.80359 11.1343C8.80701 11.1309 8.81043 11.1275 8.81385 11.1241C8.81727 11.1206 8.82069 11.1172 8.8241 11.1138C8.82752 11.1104 8.83093 11.107 8.83434 11.1036C8.83775 11.1002 8.84116 11.0967 8.84457 11.0933C8.84798 11.0899 8.85139 11.0865 8.85479 11.0831C8.8582 11.0797 8.8616 11.0763 8.86501 11.0729C8.86841 11.0695 8.87181 11.0661 8.87521 11.0627C8.87861 11.0593 8.88201 11.0559 8.88541 11.0525C8.8888 11.0491 8.8922 11.0457 8.89559 11.0423C8.89898 11.0389 8.90238 11.0355 8.90577 11.0321C8.90916 11.0288 8.91255 11.0254 8.91594 11.022C8.91932 11.0186 8.92271 11.0152 8.92609 11.0118C8.92948 11.0084 8.93286 11.005 8.93624 11.0017C8.93963 10.9983 8.94301 10.9949 8.94639 10.9915C8.94977 10.9881 8.95314 10.9848 8.95652 10.9814C8.9599 10.978 8.96327 10.9746 8.96665 10.9713C8.97002 10.9679 8.97339 10.9645 8.97676 10.9611C8.98013 10.9578 8.9835 10.9544 8.98687 10.951C8.99024 10.9477 8.99361 10.9443 8.99697 10.9409C9.00034 10.9376 9.0037 10.9342 9.00707 10.9308C9.01043 10.9275 9.01379 10.9241 9.01715 10.9208C9.02051 10.9174 9.02387 10.914 9.02723 10.9107C9.03058 10.9073 9.03394 10.904 9.0373 10.9006C9.04065 10.8973 9.044 10.8939 9.04736 10.8906C9.05071 10.8872 9.05406 10.8838 9.05741 10.8805C9.06076 10.8771 9.06411 10.8738 9.06746 10.8705C9.07081 10.8671 9.07415 10.8638 9.0775 10.8604C9.08084 10.8571 9.08419 10.8537 9.08753 10.8504C9.09087 10.847 9.09421 10.8437 9.09755 10.8404C9.10089 10.837 9.10423 10.8337 9.10757 10.8303C9.11091 10.827 9.11424 10.8237 9.11758 10.8203C9.12092 10.817 9.12425 10.8137 9.12758 10.8103C9.13092 10.807 9.13425 10.8037 9.13758 10.8003C9.14091 10.797 9.14424 10.7937 9.14757 10.7903C9.1509 10.787 9.15422 10.7837 9.15755 10.7804C9.16088 10.777 9.1642 10.7737 9.16753 10.7704C9.17085 10.7671 9.17417 10.7637 9.1775 10.7604C9.18082 10.7571 9.18414 10.7538 9.18746 10.7505C9.19078 10.7471 9.1941 10.7438 9.19742 10.7405C9.20073 10.7372 9.20405 10.7339 9.20737 10.7305C9.21068 10.7272 9.214 10.7239 9.21731 10.7206C9.22062 10.7173 9.22394 10.714 9.22725 10.7107C9.23056 10.7074 9.23387 10.704 9.23718 10.7007C9.24049 10.6974 9.2438 10.6941 9.2471 10.6908C9.25041 10.6875 9.25372 10.6842 9.25702 10.6809C9.26033 10.6776 9.26363 10.6743 9.26694 10.671C9.27024 10.6677 9.27354 10.6644 9.27685 10.6611C9.28015 10.6578 9.28345 10.6545 9.28675 10.6512C9.29005 10.6479 9.29335 10.6446 9.29664 10.6413C9.29994 10.638 9.30324 10.6347 9.30654 10.6314C9.30983 10.6281 9.31313 10.6248 9.31642 10.6215C9.31972 10.6182 9.32301 10.6149 9.3263 10.6116C9.32959 10.6083 9.33289 10.605 9.33618 10.6017C9.33947 10.5984 9.34276 10.5952 9.34605 10.5919C9.34934 10.5886 9.35262 10.5853 9.35591 10.582C9.3592 10.5787 9.36249 10.5754 9.36577 10.5721C9.36906 10.5689 9.37234 10.5656 9.37563 10.5623C9.37891 10.559 9.3822 10.5557 9.38548 10.5524C9.38876 10.5492 9.39204 10.5459 9.39532 10.5426C9.3986 10.5393 9.40188 10.536 9.40516 10.5327C9.40844 10.5295 9.41172 10.5262 9.415 10.5229C9.41828 10.5196 9.42156 10.5164 9.42483 10.5131C9.42811 10.5098 9.43138 10.5065 9.43466 10.5033C9.43793 10.5 9.44121 10.4967 9.44448 10.4934C9.44776 10.4902 9.45103 10.4869 9.4543 10.4836C9.45757 10.4803 9.46084 10.4771 9.46411 10.4738C9.46739 10.4705 9.47066 10.4673 9.47393 10.464C9.47719 10.4607 9.48046 10.4574 9.48373 10.4542C9.487 10.4509 9.49027 10.4476 9.49353 10.4444C9.4968 10.4411 9.50007 10.4378 9.50333 10.4346C9.5066 10.4313 9.50986 10.428 9.51313 10.4248C9.51639 10.4215 9.51966 10.4183 9.52292 10.415C9.52618 10.4117 9.52944 10.4085 9.53271 10.4052C9.53597 10.4019 9.53923 10.3987 9.54249 10.3954C9.54575 10.3922 9.54901 10.3889 9.55227 10.3856C9.55553 10.3824 9.55879 10.3791 9.56205 10.3759C9.56531 10.3726 9.56857 10.3693 9.57182 10.3661C9.57508 10.3628 9.57834 10.3596 9.58159 10.3563C9.58485 10.3531 9.58811 10.3498 9.59136 10.3465C9.59462 10.3433 9.59787 10.34 9.60113 10.3368C9.60438 10.3335 9.60763 10.3303 9.61089 10.327C9.61414 10.3238 9.61739 10.3205 9.62065 10.3173C9.6239 10.314 9.62715 10.3108 9.6304 10.3075C9.63365 10.3043 9.63691 10.301 9.64016 10.2978C9.64341 10.2945 9.64666 10.2913 9.64991 10.288C9.65316 10.2848 9.65641 10.2815 9.65966 10.2783C9.66291 10.275 9.66615 10.2718 9.6694 10.2685C9.67265 10.2653 9.6759 10.262 9.67915 10.2588C9.68239 10.2555 9.68564 10.2523 9.68889 10.249C9.69213 10.2458 9.69538 10.2425 9.69863 10.2393C9.70187 10.236 9.70512 10.2328 9.70836 10.2295C9.71161 10.2263 9.71486 10.2231 9.7181 10.2198C9.72134 10.2166 9.72459 10.2133 9.72783 10.2101C9.73108 10.2068 9.73432 10.2036 9.73756 10.2003C9.74081 10.1971 9.74405 10.1939 9.74729 10.1906C9.75054 10.1874 9.75378 10.1841 9.75702 10.1809C9.76027 10.1776 9.76351 10.1744 9.76675 10.1712C9.76999 10.1679 9.77323 10.1647 9.77647 10.1614C9.77972 10.1582 9.78296 10.155 9.7862 10.1517C9.78944 10.1485 9.79268 10.1452 9.79592 10.142C9.79916 10.1388 9.8024 10.1355 9.80564 10.1323C9.80888 10.129 9.81212 10.1258 9.81536 10.1225C9.8186 10.1193 9.82184 10.1161 9.82508 10.1128C9.82832 10.1096 9.83156 10.1064 9.8348 10.1031C9.83804 10.0999 9.84128 10.0966 9.84451 10.0934C9.84775 10.0902 9.85099 10.0869 9.85423 10.0837C9.85747 10.0804 9.86071 10.0772 9.86395 10.074C9.86718 10.0707 9.87042 10.0675 9.87366 10.0643C9.8769 10.061 9.88014 10.0578 9.88337 10.0545C9.88661 10.0513 9.88985 10.0481 9.89309 10.0448C9.89633 10.0416 9.89956 10.0383 9.9028 10.0351C9.90604 10.0319 9.90928 10.0286 9.91251 10.0254C9.91575 10.0222 9.91899 10.0189 9.92223 10.0157C9.92546 10.0124 9.9287 10.0092 9.93194 10.006C9.93518 10.0027 9.93841 9.9995 9.94165 9.99626C9.94489 9.99302 9.94813 9.98979 9.95136 9.98655C9.9546 9.98331 9.95784 9.98007 9.96108 9.97684C9.96431 9.9736 9.96755 9.97036 9.97079 9.96712C9.97403 9.96389 9.97726 9.96065 9.9805 9.95741C9.98374 9.95417 9.98698 9.95094 9.99021 9.9477C9.99345 9.94446 9.99669 9.94122 9.99993 9.93798C10.0032 9.93475 10.0064 9.93151 10.0096 9.92827C10.0129 9.92503 10.0161 9.92179 10.0194 9.91856C10.0226 9.91532 10.0258 9.91208 10.0291 9.90884C10.0323 9.9056 10.0355 9.90236 10.0388 9.89912C10.042 9.89589 10.0453 9.89265 10.0485 9.88941C10.0517 9.88617 10.055 9.88293 10.0582 9.87969C10.0615 9.87645 10.0647 9.87321 10.0679 9.86997C10.0712 9.86673 10.0744 9.86349 10.0777 9.86025C10.0809 9.85701 10.0841 9.85377 10.0874 9.85053C10.0906 9.84729 10.0939 9.84405 10.0971 9.84081C10.1003 9.83757 10.1036 9.83433 10.1068 9.83108C10.1101 9.82784 10.1133 9.8246 10.1166 9.82136C10.1198 9.81812 10.123 9.81487 10.1263 9.81163C10.1295 9.80839 10.1328 9.80515 10.136 9.8019C10.1392 9.79866 10.1425 9.79542 10.1457 9.79217C10.149 9.78893 10.1522 9.78569 10.1555 9.78244C10.1587 9.7792 10.162 9.77595 10.1652 9.77271C10.1684 9.76946 10.1717 9.76622 10.1749 9.76297C10.1782 9.75973 10.1814 9.75648 10.1847 9.75324C10.1879 9.74999 10.1912 9.74674 10.1944 9.7435C10.1977 9.74025 10.2009 9.737 10.2042 9.73376C10.2074 9.73051 10.2107 9.72726 10.2139 9.72401C10.2171 9.72076 10.2204 9.71752 10.2236 9.71427C10.2269 9.71102 10.2301 9.70777 10.2334 9.70452C10.2366 9.70127 10.2399 9.69802 10.2431 9.69477C10.2464 9.69152 10.2496 9.68826 10.2529 9.68501C10.2561 9.68176 10.2594 9.67851 10.2627 9.67526C10.2659 9.672 10.2692 9.66875 10.2724 9.6655C10.2757 9.66224 10.2789 9.65899 10.2822 9.65574C10.2854 9.65248 10.2887 9.64923 10.2919 9.64597C10.2952 9.64272 10.2985 9.63946 10.3017 9.6362C10.305 9.63295 10.3082 9.62969 10.3115 9.62643C10.3147 9.62317 10.318 9.61992 10.3213 9.61666C10.3245 9.6134 10.3278 9.61014 10.331 9.60688C10.3343 9.60362 10.3376 9.60036 10.3408 9.5971C10.3441 9.59384 10.3473 9.59058 10.3506 9.58732C10.3539 9.58405 10.3571 9.58079 10.3604 9.57753C10.3636 9.57427 10.3669 9.571 10.3702 9.56774C10.3734 9.56447 10.3767 9.56121 10.38 9.55794C10.3832 9.55468 10.3865 9.55141 10.3898 9.54814C10.393 9.54488 10.3963 9.54161 10.3996 9.53834C10.4028 9.53507 10.4061 9.5318 10.4094 9.52853C10.4126 9.52527 10.4159 9.522 10.4192 9.51872C10.4225 9.51545 10.4257 9.51218 10.429 9.50891C10.4323 9.50564 10.4355 9.50236 10.4388 9.49909C10.4421 9.49582 10.4454 9.49254 10.4486 9.48927C10.4519 9.48599 10.4552 9.48272 10.4585 9.47944C10.4617 9.47616 10.465 9.47289 10.4683 9.46961C10.4716 9.46633 10.4749 9.46305 10.4781 9.45977C10.4814 9.45649 10.4847 9.45321 10.488 9.44993C10.4913 9.44665 10.4945 9.44337 10.4978 9.44009C10.5011 9.4368 10.5044 9.43352 10.5077 9.43024C10.511 9.42695 10.5142 9.42367 10.5175 9.42038C10.5208 9.4171 10.5241 9.41381 10.5274 9.41052C10.5307 9.40723 10.534 9.40395 10.5373 9.40066C10.5405 9.39737 10.5438 9.39408 10.5471 9.39079C10.5504 9.3875 10.5537 9.3842 10.557 9.38091C10.5603 9.37762 10.5636 9.37433 10.5669 9.37103C10.5702 9.36774 10.5735 9.36444 10.5768 9.36115C10.5801 9.35785 10.5834 9.35455 10.5867 9.35125C10.59 9.34796 10.5933 9.34466 10.5966 9.34136C10.5999 9.33806 10.6032 9.33476 10.6065 9.33146C10.6098 9.32815 10.6131 9.32485 10.6164 9.32155C10.6197 9.31824 10.623 9.31494 10.6263 9.31163C10.6296 9.30833 10.6329 9.30502 10.6362 9.30171C10.6395 9.29841 10.6428 9.2951 10.6461 9.29179C10.6494 9.28848 10.6527 9.28517 10.6561 9.28186C10.6594 9.27855 10.6627 9.27523 10.666 9.27192C10.6693 9.26861 10.6726 9.26529 10.6759 9.26198C10.6793 9.25866 10.6826 9.25534 10.6859 9.25203C10.6892 9.24871 10.6925 9.24539 10.6958 9.24207C10.6992 9.23875 10.7025 9.23543 10.7058 9.23211C10.7091 9.22878 10.7124 9.22546 10.7158 9.22214C10.7191 9.21881 10.7224 9.21549 10.7257 9.21216C10.7291 9.20883 10.7324 9.20551 10.7357 9.20218C10.7391 9.19885 10.7424 9.19552 10.7457 9.19219C10.7491 9.18886 10.7524 9.18553 10.7557 9.18219C10.7591 9.17886 10.7624 9.17553 10.7657 9.17219C10.7691 9.16885 10.7724 9.16552 10.7757 9.16218C10.7791 9.15884 10.7824 9.1555 10.7857 9.15216C10.7891 9.14882 10.7924 9.14548 10.7958 9.14214C10.7991 9.1388 10.8025 9.13545 10.8058 9.13211C10.8091 9.12876 10.8125 9.12541 10.8158 9.12207C10.8192 9.11872 10.8225 9.11537 10.8259 9.11202C10.8292 9.10867 10.8326 9.10532 10.8359 9.10197C10.8393 9.09861 10.8427 9.09526 10.846 9.09191C10.8494 9.08855 10.8527 9.08519 10.8561 9.08184C10.8594 9.07848 10.8628 9.07512 10.8662 9.07176C10.8695 9.0684 10.8729 9.06504 10.8762 9.06167C10.8796 9.05831 10.883 9.05495 10.8863 9.05158C10.8897 9.04822 10.8931 9.04485 10.8964 9.04148C10.8998 9.03811 10.9032 9.03474 10.9065 9.03137C10.9099 9.028 10.9133 9.02463 10.9167 9.02126C10.92 9.01788 10.9234 9.01451 10.9268 9.01113C10.9302 9.00775 10.9335 9.00438 10.9369 9.001C10.9403 8.99762 10.9437 8.99424 10.9471 8.99085C10.9504 8.98747 10.9538 8.98409 10.9572 8.9807C10.9606 8.97732 10.964 8.97393 10.9674 8.97054C10.9708 8.96716 10.9741 8.96377 10.9775 8.96038C10.9809 8.95699 10.9843 8.95359 10.9877 8.9502C10.9911 8.94681 10.9945 8.94341 10.9979 8.94001C11.0013 8.93662 11.0047 8.93322 11.0081 8.92982C11.0115 8.92642 11.0149 8.92302 11.0183 8.91962C11.0217 8.91621 11.0251 8.91281 11.0285 8.9094C11.0319 8.906 11.0353 8.90259 11.0387 8.89918C11.0421 8.89577 11.0455 8.89236 11.049 8.88895C11.0524 8.88554 11.0558 8.88213 11.0592 8.87871C11.0626 8.8753 11.066 8.87188 11.0694 8.86846C11.0729 8.86504 11.0763 8.86162 11.0797 8.8582C11.0831 8.85478 11.0866 8.85136 11.09 8.84793C11.0934 8.84451 11.0968 8.84108 11.1003 8.83766C11.1037 8.83423 11.1071 8.8308 11.1105 8.82737C11.114 8.82394 11.1174 8.8205 11.1208 8.81707C11.1243 8.81364 11.1277 8.8102 11.1311 8.80676C11.1346 8.80332 11.138 8.79988 11.1415 8.79644C11.1449 8.793 11.1484 8.78956 11.1518 8.78612C11.1552 8.78267 11.1587 8.77922 11.1621 8.77578C11.1656 8.77233 11.169 8.76888 11.1725 8.76543C11.1759 8.76198 11.1794 8.75852 11.1828 8.75507C11.1863 8.75161 11.1898 8.74816 11.1932 8.7447C11.1967 8.74124 11.2001 8.73778 11.2036 8.73432C11.2071 8.73086 11.2105 8.7274 11.214 8.72393C11.2174 8.72046 11.2209 8.717 11.2244 8.71353C11.2279 8.71006 11.2313 8.70659 11.2348 8.70312C11.2383 8.69964 11.2417 8.69617 11.2452 8.69269C11.2487 8.68922 11.2522 8.68574 11.2557 8.68226C11.2591 8.67878 11.2626 8.6753 11.2661 8.67182C11.2696 8.66833 11.2731 8.66485 11.2766 8.66136C11.28 8.65787 11.2835 8.65438 11.287 8.65089C11.2905 8.6474 11.294 8.64391 11.2975 8.64041C11.301 8.63692 11.3045 8.63342 11.308 8.62993C11.3115 8.62643 11.315 8.62293 11.3185 8.61942C11.322 8.61592 11.3255 8.61242 11.329 8.60891C11.3325 8.60541 11.336 8.6019 11.3395 8.59839C11.343 8.59488 11.3465 8.59137 11.3501 8.58785C11.3536 8.58434 11.3571 8.58082 11.3606 8.5773C11.3641 8.57379 11.3676 8.57027 11.3712 8.56675C11.3747 8.56322 11.3782 8.5597 11.3817 8.55617C11.3853 8.55265 11.3888 8.54912 11.3923 8.54559C11.3959 8.54206 11.3994 8.53853 11.4029 8.53499C11.4064 8.53146 11.41 8.52793 11.4135 8.52439C11.4171 8.52085 11.4206 8.51731 11.4241 8.51377C11.4277 8.51023 11.4312 8.50668 11.4348 8.50314C11.4383 8.49959 11.4419 8.49604 11.4454 8.49249C11.449 8.48894 11.4525 8.48539 11.4561 8.48183C11.4596 8.47828 11.4632 8.47472 11.4667 8.47116C11.4703 8.4676 11.4739 8.46404 11.4774 8.46048C11.481 8.45692 11.4846 8.45335 11.4881 8.44979C11.4917 8.44622 11.4953 8.44265 11.4988 8.43908C11.5024 8.43551 11.506 8.43193 11.5096 8.42836C11.5131 8.42478 11.5167 8.4212 11.5203 8.41762C11.5239 8.41404 11.5275 8.41046 11.531 8.40688C11.5346 8.40329 11.5382 8.3997 11.5418 8.39612C11.5454 8.39253 11.549 8.38894 11.5526 8.38534C11.5562 8.38175 11.5598 8.37815 11.5634 8.37455C11.567 8.37096 11.5706 8.36736 11.5742 8.36375C11.5778 8.36015 11.5814 8.35655 11.585 8.35294C11.5886 8.34933 11.5922 8.34572 11.5958 8.34211C11.5994 8.3385 11.603 8.33489 11.6066 8.33127C11.6103 8.32766 11.6139 8.32404 11.6175 8.32042C11.6211 8.3168 11.6247 8.31317 11.6284 8.30955C11.632 8.30592 11.6356 8.3023 11.6392 8.29867C11.6429 8.29504 11.6465 8.2914 11.6501 8.28777C11.6538 8.28413 11.6574 8.2805 11.6611 8.27686C11.6647 8.27322 11.6683 8.26958 11.672 8.26593C11.6756 8.26229 11.6793 8.25864 11.6829 8.25499C11.6866 8.25134 11.6902 8.24769 11.6939 8.24404C11.6975 8.24039 11.7012 8.23673 11.7048 8.23307C11.7085 8.22941 11.7122 8.22575 11.7158 8.22209C11.7195 8.21843 11.7232 8.21476 11.7268 8.21109C11.7305 8.20742 11.7342 8.20375 11.7378 8.20008C11.7415 8.19641 11.7452 8.19273 11.7489 8.18905C11.7525 8.18538 11.7562 8.1817 11.7599 8.17801C11.7636 8.17433 11.7673 8.17064 11.771 8.16696C11.7746 8.16327 11.7783 8.15958 11.782 8.15588C11.7857 8.15219 11.7894 8.1485 11.7931 8.1448C11.7968 8.1411 11.8005 8.1374 11.8042 8.1337C11.8079 8.12999 11.8116 8.12629 11.8153 8.12258C11.819 8.11887 11.8228 8.11516 11.8265 8.11145C11.8302 8.10773 11.8339 8.10402 11.8376 8.1003C11.8413 8.09658 11.8451 8.09286 11.8488 8.08914C11.8525 8.08541 11.8562 8.08169 11.86 8.07796C11.8637 8.07423 11.8674 8.0705 11.8711 8.06676C11.8749 8.06303 11.8786 8.05929 11.8824 8.05555C11.8861 8.05181 11.8898 8.04807 11.8936 8.04433C11.8973 8.04058 11.9011 8.03683 11.9048 8.03308C11.9086 8.02933 11.9123 8.02558 11.9161 8.02182C11.9198 8.01807 11.9236 8.01431 11.9274 8.01055C11.9311 8.00679 11.9349 8.00303 11.9387 7.99926C11.9424 7.99549 11.9462 7.99173 11.95 7.98795C11.9537 7.98418 11.9575 7.98041 11.9613 7.97663C11.9651 7.97285 11.9688 7.96907 11.9726 7.96529C11.9764 7.96151 11.9802 7.95772 11.984 7.95393C11.9878 7.95015 11.9916 7.94636 11.9953 7.94256C11.9991 7.93877 12.0029 7.93497 12.0067 7.93117C12.0105 7.92737 12.0143 7.92357 12.0181 7.91977C12.0219 7.91596 12.0258 7.91215 12.0296 7.90834C12.0334 7.90453 12.0372 7.90072 12.041 7.8969C12.0448 7.89309 12.0486 7.88927 12.0525 7.88545C12.0563 7.88163 12.0601 7.8778 12.0639 7.87397C12.0678 7.87015 12.0716 7.86631 12.0754 7.86248C12.0793 7.85865 12.0831 7.85481 12.0869 7.85097C12.0908 7.84713 12.0946 7.84329 12.0985 7.83945C12.1023 7.8356 12.1062 7.83175 12.11 7.8279C12.1139 7.82405 12.1177 7.8202 12.1216 7.81634C12.1254 7.81249 12.1293 7.80863 12.1331 7.80476C12.137 7.8009 12.1409 7.79704 12.1447 7.79317C12.1486 7.7893 12.1525 7.78543 12.1564 7.78155C12.1602 7.77768 12.1641 7.7738 12.168 7.76992C12.1719 7.76604 12.1758 7.76216 12.1796 7.75827C12.1835 7.75439 12.1874 7.7505 12.1913 7.74661C12.1952 7.74271 12.1991 7.73882 12.203 7.73492C12.2069 7.73102 12.2108 7.72712 12.2147 7.72322C12.2186 7.71931 12.2225 7.7154 12.2264 7.71149C12.2303 7.70758 12.2342 7.70367 12.2382 7.69975C12.2421 7.69584 12.246 7.69192 12.2499 7.68799C12.2538 7.68407 12.2578 7.68015 12.2617 7.67622C12.2656 7.67229 12.2696 7.66836 12.2735 7.66442C12.2774 7.66048 12.2814 7.65655 12.2853 7.65261C12.2892 7.64866 12.2932 7.64472 12.2971 7.64077C12.3011 7.63682 12.305 7.63287 12.309 7.62892C12.3129 7.62497 12.3169 7.62101 12.3209 7.61705C12.3248 7.61309 12.3288 7.60912 12.3328 7.60516C12.3367 7.60119 12.3407 7.59722 12.3447 7.59325C12.3486 7.58927 12.3526 7.5853 12.3566 7.58132C12.3606 7.57734 12.3646 7.57336 12.3685 7.56937C12.3725 7.56538 12.3765 7.5614 12.3805 7.5574C12.3845 7.55341 12.3885 7.54942 12.3925 7.54542C12.3965 7.54142 12.4005 7.53742 12.4045 7.53341C12.4085 7.5294 12.4125 7.5254 12.4165 7.52138C12.4205 7.51737 12.4246 7.51336 12.4286 7.50934C12.4326 7.50532 12.4366 7.5013 12.4406 7.49727C12.4447 7.49325 12.4487 7.48922 12.4527 7.48519C12.4568 7.48116 12.4608 7.47712 12.4648 7.47308C12.4689 7.46904 12.4729 7.465 12.477 7.46096C12.481 7.45691 12.485 7.45286 12.4891 7.44881C12.4932 7.44476 12.4972 7.4407 12.5013 7.43665C12.5053 7.43259 12.5094 7.42853 12.5135 7.42446C12.5175 7.4204 12.5216 7.41633 12.5257 7.41225C12.5297 7.40818 12.5338 7.40411 12.5379 7.40003C12.542 7.39595 12.546 7.39187 12.5501 7.38778C12.5542 7.38369 12.5583 7.37961 12.5624 7.37551C12.5665 7.37142 12.5706 7.36732 12.5747 7.36322C12.5788 7.35912 12.5829 7.35502 12.587 7.35091C12.5911 7.34681 12.5952 7.3427 12.5993 7.33858C12.6034 7.33447 12.6076 7.33035 12.6117 7.32623C12.6158 7.32211 12.6199 7.31799 12.624 7.31386C12.6282 7.30973 12.6323 7.3056 12.6364 7.30147C12.6406 7.29733 12.6447 7.2932 12.6489 7.28905C12.653 7.28491 12.6571 7.28077 12.6613 7.27662L11.9542 6.56951Z" fill="#FDCAC2"/>
</g>
<defs>
<filter id="filter0_b" x="-4" y="-4" width="28" height="28" filterUnits="userSpaceOnUse" color-interpolation-filters="sRGB">
<feFlood flood-opacity="0" result="BackgroundImageFix"/>
<feGaussianBlur in="BackgroundImage" stdDeviation="2"/>
<feComposite in2="SourceAlpha" operator="in" result="effect1_backgroundBlur"/>
<feBlend mode="normal" in="SourceGraphic" in2="effect1_backgroundBlur" result="shape"/>
</filter>
<filter id="filter1_b" x="-4" y="-4" width="28" height="28" filterUnits="userSpaceOnUse" color-interpolation-filters="sRGB">
<feFlood flood-opacity="0" result="BackgroundImageFix"/>
<feGaussianBlur in="BackgroundImage" stdDeviation="2"/>
<feComposite in2="SourceAlpha" operator="in" result="effect1_backgroundBlur"/>
<feBlend mode="normal" in="SourceGraphic" in2="effect1_backgroundBlur" result="shape"/>
</filter>
</defs>
</svg>
